<svg xmlns="http://www.w3.org/2000/svg" viewBox="0 0 512 512">
  <rect width="512" height="512" rx="112" fill="#163d2f"/>
  <path d="M110 336c45-10 90-46 116-85 18-26 30-58 44-92 8 44 21 80 45 108 24 28 55 49 87 62-26 20-58 32-102 32H208c-42 0-73-8-98-25Z" fill="#efe7d8"/>
  <path d="M160 174c18-24 46-39 78-39 25 0 49 8 69 24 22 17 37 41 46 70-18-15-41-24-67-24-34 0-64 15-87 41-18 19-30 43-39 70-7-24-7-49 0-72Z" fill="#c77c28"/>
  <circle cx="192" cy="204" r="18" fill="#fffdf8"/>
  <circle cx="320" cy="190" r="14" fill="#fffdf8"/>
</svg>
